<svg width="157" height="28" viewBox="0 0 157 28" fill="none" xmlns="http://www.w3.org/2000/svg">
<path fill-rule="evenodd" clip-rule="evenodd" d="M3 0C1.34315 0 0 1.34315 0 3V25C0 26.6569 1.34315 28 3 28H154C155.657 28 157 26.6569 157 25V3C157 1.34315 155.657 0 154 0H3ZM7 17.1668C7 18.882 8.6315 20.0481 10.223 19.7273V22.3863C10.223 24.3953 12.4611 25.651 14.2517 24.6465L23.6571 19.3699C25.4476 18.3654 25.4476 15.8541 23.6571 14.8496L21.223 13.4841C22.1674 12.2958 21.9045 10.4549 20.4341 9.63008L11.0287 4.35354C9.23817 3.34903 7 4.60466 7 6.61368V17.1668ZM19.897 10.5341L10.4915 5.25759C9.41722 4.65489 8.07432 5.40827 8.07432 6.61368V17.1668C8.07432 18.2734 9.20619 18.9991 10.223 18.6442V11.8332C10.223 9.82423 12.4611 8.5686 14.2517 9.5731L20.277 12.9534C20.9513 12.2489 20.8246 11.0545 19.897 10.5341ZM23.1199 15.7537L20.3481 14.1986L11.2973 19.2762V22.3863C11.2973 23.5917 12.6402 24.3451 13.7145 23.7424L23.1199 18.4659C24.1943 17.8632 24.1943 16.3564 23.1199 15.7537ZM11.2973 18.0708L19.2737 13.5959L13.7145 10.4772C12.6402 9.87446 11.2973 10.6278 11.2973 11.8332V18.0708ZM31.22 7.08H28.78L34.56 22.18L38.337 13.4831L41.74 22.14L47.42 7.08H45.18L41.8004 17.0478L37.9 7.08H35.82L37.306 10.8601L34.8224 17.2615L31.22 7.08ZM46.9194 21.5L53.2994 6.4H53.4194L59.7994 21.5H57.3794L55.9505 17.86H50.4895L48.9994 21.5H46.9194ZM53.2773 11.0502L55.2439 16.06H51.2264L53.2773 11.0502ZM69.8905 7H60.2305V9.02H63.9505V21.5H66.0505V9.02H69.8905V7ZM83.0056 20.4C82.779 20.5467 82.4523 20.7267 82.0256 20.94C81.6123 21.14 81.119 21.3133 80.5456 21.46C79.9856 21.6067 79.3723 21.6733 78.7056 21.66C77.5723 21.6467 76.559 21.4467 75.6656 21.06C74.7723 20.6733 74.0056 20.1467 73.3656 19.48C72.739 18.8 72.259 18.0267 71.9256 17.16C71.5923 16.28 71.4256 15.3467 71.4256 14.36C71.4256 13.2667 71.599 12.2667 71.9456 11.36C72.3056 10.44 72.8056 9.64667 73.4456 8.98C74.0856 8.3 74.839 7.77333 75.7056 7.4C76.5856 7.02667 77.5456 6.84 78.5856 6.84C79.4656 6.84 80.2656 6.96 80.9856 7.2C81.7056 7.44 82.3123 7.71333 82.8056 8.02L81.9656 9.98C81.579 9.71333 81.099 9.46 80.5256 9.22C79.9656 8.98 79.339 8.86 78.6456 8.86C77.739 8.86 76.899 9.1 76.1256 9.58C75.3656 10.06 74.7523 10.7067 74.2856 11.52C73.8323 12.3333 73.6056 13.2467 73.6056 14.26C73.6056 15.2867 73.8123 16.2067 74.2256 17.02C74.6523 17.8333 75.2523 18.4733 76.0256 18.94C76.799 19.4067 77.7056 19.64 78.7456 19.64C79.4923 19.64 80.1456 19.5267 80.7056 19.3C81.279 19.0733 81.7456 18.8133 82.1056 18.52L83.0056 20.4ZM97.8123 21.5V7H95.7123V13.22H88.2923V7H86.2123V21.5H88.2923V15.22H95.7123V21.5H97.8123ZM100.855 7H110.515V9.02H106.675V21.5H104.575V9.02H100.855V7ZM125.156 21.5V7H123.056V13.22H115.636V7H113.556V21.5H115.636V15.22H123.056V21.5H125.156ZM127.759 21.5L134.139 6.4H134.259L140.639 21.5H138.219L136.79 17.86H131.329L129.839 21.5H127.759ZM134.117 11.0502L136.084 16.06H132.066L134.117 11.0502ZM150.73 7H141.07V9.02H144.79V21.5H146.89V9.02H150.73V7Z" fill="white"/>
</svg>
