<?xml version="1.0" standalone="no"?>
<!DOCTYPE svg PUBLIC "-//W3C//DTD SVG 20010904//EN"
 "http://www.w3.org/TR/2001/REC-SVG-20010904/DTD/svg10.dtd">
<svg version="1.0" xmlns="http://www.w3.org/2000/svg"
 width="700.000000pt" height="700.000000pt" viewBox="0 0 700.000000 700.000000"
 preserveAspectRatio="xMidYMid meet">
<metadata>
Created by potrace 1.14, written by Peter Selinger 2001-2017
</metadata>
<g transform="translate(0.000000,700.000000) scale(0.100000,-0.100000)"
fill="#000000" stroke="none">
<path d="M191 6978 c-72 -27 -142 -97 -169 -169 l-21 -54 0 -3255 0 -3255 21
-54 c25 -65 90 -134 156 -164 l47 -22 3275 0 3275 0 47 22 c64 29 132 102 157
166 20 52 20 70 18 3317 l-2 3265 -28 57 c-33 68 -91 120 -161 147 -50 20
-102 20 -3306 20 l-3255 0 -54 -21z m1739 -862 c109 -17 188 -50 435 -181 44
-23 134 -71 200 -105 286 -149 334 -175 400 -210 39 -21 176 -93 305 -160 222
-116 299 -156 515 -270 50 -26 144 -76 210 -110 237 -123 351 -183 410 -215
33 -18 119 -63 190 -100 154 -80 182 -98 248 -160 193 -180 254 -461 150 -695
-24 -56 -70 -129 -88 -142 -15 -11 -4 -18 180 -113 94 -48 197 -102 230 -120
33 -18 104 -55 157 -83 139 -72 200 -115 267 -188 106 -116 161 -250 165 -402
4 -171 -56 -319 -181 -448 -59 -61 -109 -96 -238 -164 -55 -29 -136 -72 -180
-95 -80 -42 -186 -98 -450 -235 -77 -40 -153 -81 -170 -90 -16 -10 -102 -55
-190 -100 -88 -46 -189 -99 -225 -118 -36 -19 -126 -66 -200 -105 -74 -38
-157 -82 -185 -97 -27 -15 -126 -67 -220 -115 -93 -48 -183 -95 -200 -105 -16
-10 -102 -55 -190 -100 -88 -46 -189 -98 -224 -117 -231 -124 -494 -128 -726
-13 -136 68 -234 165 -304 300 -59 116 -64 158 -65 564 l-1 360 -135 2 c-156
2 -178 5 -283 46 -231 89 -405 290 -434 501 -4 29 -8 677 -8 1442 l0 1390 27
85 c78 246 321 439 588 467 30 3 56 6 58 8 4 4 117 -3 162 -9z"/>
<path d="M1727 5854 c-170 -32 -304 -155 -337 -312 -7 -31 -10 -522 -8 -1422
l3 -1375 27 -57 c51 -108 155 -193 283 -231 56 -16 212 -16 241 1 18 10 19 44
20 894 0 670 3 897 13 943 21 99 84 215 159 293 146 152 310 222 528 228 155
4 256 -21 409 -101 33 -18 128 -67 210 -110 83 -43 177 -92 210 -110 33 -18
107 -57 165 -87 194 -102 334 -175 455 -238 66 -34 143 -75 170 -90 242 -132
367 -191 380 -180 29 24 75 107 89 161 44 173 -43 346 -221 440 -37 20 -111
59 -163 86 -52 28 -153 81 -225 118 -71 37 -161 84 -200 105 -38 21 -133 70
-210 110 -77 40 -162 85 -190 100 -27 15 -117 62 -200 105 -82 43 -181 94
-220 115 -82 44 -236 124 -390 205 -133 69 -318 166 -480 252 -314 166 -371
184 -518 157z"/>
<path d="M2565 4545 c-77 -19 -153 -62 -211 -119 -46 -46 -63 -74 -99 -161 -9
-20 -15 -1655 -7 -1655 3 0 28 13 56 29 28 15 107 58 176 93 306 160 561 294
635 333 44 23 132 69 195 102 203 107 333 174 425 223 50 26 144 76 210 110
66 35 156 82 200 105 44 23 113 59 153 80 39 20 72 39 72 41 0 3 -15 12 -32
20 -18 8 -55 27 -83 42 -27 16 -122 66 -210 111 -88 46 -245 129 -350 184
-104 54 -242 126 -305 160 -63 33 -151 79 -195 102 -248 132 -337 177 -376
191 -57 20 -190 25 -254 9z"/>
<path d="M4625 3557 c-11 -8 -96 -53 -190 -102 -93 -48 -192 -100 -220 -115
-27 -15 -117 -62 -200 -105 -82 -43 -190 -99 -240 -125 -86 -45 -197 -103
-390 -205 -49 -26 -151 -79 -225 -117 -74 -39 -157 -83 -185 -98 -27 -15 -124
-66 -215 -113 -91 -47 -208 -109 -260 -136 -52 -28 -131 -69 -176 -92 l-81
-42 2 -421 c1 -295 5 -434 13 -463 16 -55 77 -144 127 -184 48 -38 145 -84
200 -94 68 -12 169 -6 227 14 31 11 107 46 169 79 63 33 166 87 229 120 63 33
140 73 170 89 30 17 127 67 215 113 88 45 196 102 240 125 99 52 247 130 385
203 147 76 301 157 395 207 44 23 134 71 200 105 66 34 161 84 210 110 50 26
144 76 210 110 182 95 205 109 252 147 125 102 166 293 94 436 -55 110 -93
141 -326 262 -82 43 -181 94 -220 115 -250 132 -364 190 -377 190 -7 0 -22 -6
-33 -13z"/>
</g>
</svg>
